Faster (2010) 

Vanaf 3 maart 2011 in de bioscoop

Verenigde Staten
Actie / Drama
95 minuten

geregisseerd door George Tillman Jr.
met Dwayne Johnson, Carla Gugino en Billy Bob Thornton

Dutch:
'Faster' vertelt het verhaal van Driver (Dwayne Johnson), een man die net vrijkomt na een jarenlange gevangenisstraf. Hij zat vast omdat hij er tijdens een bankoverval in is geluisd. Daarnaast is zijn broer toen vermoord. Nu wil Driver maar één ding; zijn broer wreken.

English:
An ex-con sets out to avenge his brother's death after they were double-crossed during a heist years ago. During his campaign, however, he's tracked by a veteran cop and an egocentric hit man.

******************************************
Dvd Info:

Release name.......: Faster 2010 Cam XviD-FLAWL3SS 

Source.............: CAM

Video
ID                               : 0
Format                           : xvid
Codec ID                         : xvid
Duration                         : 1h 33mn
Bit rate                         : 1 200 Kbps
Width                            : 720 pixels
Height                           : 480 pixels
Display aspect ratio             : 3:2
Frame rate                       : 29.970 fps
Standard                         : NTSC
Bits/(Pixel*Frame)               : 0.116
Stream size                      : 802 MiB (89%)

Audio
ID                               : 1
Format                           : MPEG Audio
Format version                   : Version 1
Format profile                   : Layer 3
Mode                             : Joint stereo
Mode extension                   : MS Stereo
Codec ID                         : 55
Codec ID/Hint                    : MP3
Duration                         : 1h 33mn
Bit rate mode                    : Constant
Bit rate                         : 128 Kbps
Channel(s)                       : 2 channels
Sampling rate                    : 48.0 KHz
Compression mode                 : Lossy
Stream size                      : 85.6 MiB (10%)
Alignment                        : Aligned on interleaves
Interleave, duration             : 24 ms (0.72 video frame)
Interleave, preload duration     : 24 ms
Writing library                  : LAME3.97

Subtitles..........: NL cust. Fast Gollums Twilight Release Team, weer geheel op audio, top werk!

Bewerking..........: Dejavu

  
http://www.moviemeter.nl/film/64601  
http://www.imdb.com/title/tt1433108

******************************************

Brought to you by 

Black Pearl

******************************************

		